<?xml version="1.0" encoding="UTF-8"?>
<svg xmlns="http://www.w3.org/2000/svg" xmlns:xlink="http://www.w3.org/1999/xlink" width="150pt" height="150pt" viewBox="0 0 150 150" version="1.1">
<g id="surface1">
<path style=" stroke:none;fill-rule:nonzero;fill:rgb(0%,0%,0%);fill-opacity:1;" d="M 30.992188 76.230469 L 35.664062 76.230469 L 35.664062 80.777344 L 30.992188 80.777344 Z M 30.992188 76.230469 "/>
<path style=" stroke:none;fill-rule:nonzero;fill:rgb(0%,0%,0%);fill-opacity:1;" d="M 40.332031 76.230469 L 45 76.230469 L 45 80.777344 L 40.332031 80.777344 Z M 40.332031 76.230469 "/>
<path style=" stroke:none;fill-rule:nonzero;fill:rgb(0%,0%,0%);fill-opacity:1;" d="M 49.671875 76.230469 L 54.339844 76.230469 L 54.339844 80.777344 L 49.671875 80.777344 Z M 49.671875 76.230469 "/>
<path style=" stroke:none;fill-rule:nonzero;fill:rgb(0%,0%,0%);fill-opacity:1;" d="M 59.007812 76.230469 L 63.679688 76.230469 L 63.679688 80.777344 L 59.007812 80.777344 Z M 59.007812 76.230469 "/>
<path style=" stroke:none;fill-rule:nonzero;fill:rgb(0%,0%,0%);fill-opacity:1;" d="M 68.347656 76.230469 L 73.015625 76.230469 L 73.015625 80.777344 L 68.347656 80.777344 Z M 68.347656 76.230469 "/>
<path style=" stroke:none;fill-rule:nonzero;fill:rgb(0%,0%,0%);fill-opacity:1;" d="M 77.6875 76.230469 L 82.355469 76.230469 L 82.355469 80.777344 L 77.6875 80.777344 Z M 77.6875 76.230469 "/>
<path style=" stroke:none;fill-rule:nonzero;fill:rgb(0%,0%,0%);fill-opacity:1;" d="M 87.023438 76.230469 L 91.695312 76.230469 L 91.695312 80.777344 L 87.023438 80.777344 Z M 87.023438 76.230469 "/>
<path style=" stroke:none;fill-rule:nonzero;fill:rgb(0%,0%,0%);fill-opacity:1;" d="M 96.363281 76.230469 L 101.03125 76.230469 L 101.03125 80.777344 L 96.363281 80.777344 Z M 96.363281 76.230469 "/>
<path style=" stroke:none;fill-rule:nonzero;fill:rgb(0%,0%,0%);fill-opacity:1;" d="M 105.703125 76.230469 L 110.371094 76.230469 L 110.371094 80.777344 L 105.703125 80.777344 Z M 105.703125 76.230469 "/>
<path style=" stroke:none;fill-rule:nonzero;fill:rgb(0%,0%,0%);fill-opacity:1;" d="M 68.289062 34.082031 L 73.015625 34.082031 L 73.015625 29.535156 L 68.289062 29.535156 L 68.289062 24.746094 L 73.015625 24.746094 L 73.015625 20.195312 L 68.289062 20.195312 L 68.289062 10.738281 L 73.667969 10.738281 L 89.519531 62.820312 L 93.871094 61.496094 L 77.035156 6.1875 L 63.738281 6.1875 L 63.738281 62.160156 L 68.289062 62.160156 Z M 68.289062 34.082031 "/>
<path style=" stroke:none;fill-rule:nonzero;fill:rgb(0%,0%,0%);fill-opacity:1;" d="M 139.371094 78.601562 L 128.714844 67.949219 C 126.527344 65.757812 123.617188 64.554688 120.519531 64.554688 L 29.964844 64.554688 L 24.71875 55.558594 L 24.742188 55.5625 L 29.050781 31.871094 L 17.582031 31.871094 L 15.453125 39.675781 L 13.621094 36.539062 L 0.703125 36.539062 L 0.703125 77.171875 L 3.988281 80.160156 L 0 94.785156 L 11.574219 94.785156 L 13.6875 88.976562 L 27.78125 101.789062 L 63.738281 101.789062 L 63.738281 143.8125 L 77.035156 143.8125 L 89.828125 101.789062 L 139.449219 101.789062 C 145.265625 101.789062 150 97.054688 150 91.238281 L 150 90.175781 C 150 84.101562 145.316406 79.105469 139.371094 78.601562 Z M 21.058594 36.417969 L 23.597656 36.417969 L 21.210938 49.546875 L 18.667969 45.183594 Z M 8.386719 90.234375 L 5.957031 90.234375 L 11.71875 69.101562 L 16.074219 69.101562 Z M 29.539062 97.238281 L 26.835938 94.785156 L 63.738281 94.785156 L 63.738281 97.238281 Z M 89.519531 87.179688 L 73.667969 139.261719 L 68.289062 139.261719 L 68.289062 129.804688 L 73.015625 129.804688 L 73.015625 125.253906 L 68.289062 125.253906 L 68.289062 120.464844 L 73.015625 120.464844 L 73.015625 115.917969 L 68.289062 115.917969 L 68.289062 85.507812 L 63.738281 85.507812 L 63.738281 90.234375 L 21.832031 90.234375 L 15.367188 84.355469 L 22.566406 64.554688 L 8.246094 64.554688 L 5.332031 75.234375 L 5.253906 75.160156 L 5.253906 41.085938 L 11.011719 41.085938 L 27.351562 69.101562 L 120.519531 69.101562 C 122.402344 69.101562 124.167969 69.835938 125.5 71.164062 L 130.5625 76.226562 L 122.042969 76.226562 L 122.042969 80.777344 L 135.109375 80.777344 L 135.339844 81.003906 L 127.957031 90.234375 L 93.34375 90.234375 L 93.871094 88.503906 Z M 139.449219 97.238281 L 91.210938 97.238281 L 91.957031 94.785156 L 130.140625 94.785156 L 139.417969 83.1875 C 142.828125 83.6875 145.449219 86.628906 145.449219 90.175781 L 145.449219 91.238281 C 145.449219 94.546875 142.757812 97.238281 139.449219 97.238281 Z M 139.449219 97.238281 "/>
</g>
</svg>
